<svg xmlns="http://www.w3.org/2000/svg" viewBox="0 0 1920 1080" preserveAspectRatio="xMidYMid slice">
  <defs>
    <linearGradient id="sky" x1="0" x2="0" y1="0" y2="1">
      <stop offset="0" stop-color="#120a3f"/>
      <stop offset="0.35" stop-color="#102d68"/>
      <stop offset="0.68" stop-color="#f2755a"/>
      <stop offset="1" stop-color="#061224"/>
    </linearGradient>
    <radialGradient id="sun" cx="55%" cy="45%" r="45%">
      <stop offset="0" stop-color="#ffc66d" stop-opacity=".75"/>
      <stop offset=".38" stop-color="#ff6b64" stop-opacity=".32"/>
      <stop offset="1" stop-color="#001024" stop-opacity="0"/>
    </radialGradient>
    <filter id="blur"><feGaussianBlur stdDeviation="3"/></filter>
  </defs>
  <rect width="1920" height="1080" fill="url(#sky)"/>
  <rect width="1920" height="1080" fill="url(#sun)"/>
  <g opacity=".35" filter="url(#blur)">
    <circle cx="250" cy="155" r="2" fill="#fff"/><circle cx="880" cy="120" r="2" fill="#fff"/><circle cx="1450" cy="220" r="2" fill="#fff"/>
  </g>
  <g fill="#07162c" opacity=".82">
    <rect x="0" y="585" width="90" height="495"/><rect x="110" y="520" width="115" height="560"/><rect x="250" y="620" width="75" height="460"/><rect x="350" y="470" width="160" height="610"/><rect x="545" y="575" width="100" height="505"/><rect x="675" y="430" width="145" height="650"/><rect x="855" y="565" width="95" height="515"/><rect x="980" y="490" width="170" height="590"/><rect x="1185" y="610" width="90" height="470"/><rect x="1300" y="455" width="135" height="625"/><rect x="1465" y="545" width="170" height="535"/><rect x="1675" y="610" width="100" height="470"/><rect x="1800" y="500" width="120" height="580"/>
  </g>
  <g fill="#0d2a50" opacity=".88">
    <rect x="0" y="710" width="150" height="370"/><rect x="180" y="660" width="190" height="420"/><rect x="395" y="735" width="130" height="345"/><rect x="560" y="640" width="210" height="440"/><rect x="800" y="725" width="170" height="355"/><rect x="1010" y="690" width="155" height="390"/><rect x="1195" y="720" width="230" height="360"/><rect x="1450" y="650" width="170" height="430"/><rect x="1650" y="720" width="270" height="360"/>
  </g>
  <g opacity=".75">
    <g fill="#ffc85b">
      <rect x="42" y="745" width="7" height="16"/><rect x="76" y="805" width="7" height="16"/><rect x="218" y="695" width="8" height="18"/><rect x="280" y="750" width="8" height="18"/><rect x="455" y="770" width="8" height="18"/><rect x="620" y="690" width="9" height="20"/><rect x="723" y="710" width="9" height="20"/><rect x="1070" y="735" width="8" height="18"/><rect x="1265" y="770" width="8" height="18"/><rect x="1535" y="700" width="8" height="18"/><rect x="1744" y="760" width="8" height="18"/><rect x="1850" y="680" width="8" height="18"/>
    </g>
    <g fill="#22d3ee"><rect x="420" y="850" width="40" height="3"/><rect x="1320" y="825" width="55" height="3"/><rect x="940" y="790" width="35" height="3"/></g>
  </g>
  <rect y="900" width="1920" height="180" fill="#020815" opacity=".72"/>
</svg>
